<svg width="104" height="104" viewBox="0 0 110 110" fill="none" xmlns="http://www.w3.org/2000/svg">
    <path
        d="M97.3844 49.9488L54.051 6.61546C53.5098 6.0774 52.7776 5.77539 52.0144 5.77539C51.2512 5.77539 50.519 6.0774 49.9777 6.61546L6.64436 49.9488C6.17108 50.5014 5.92378 51.2123 5.95186 51.9394C5.97994 52.6665 6.28135 53.3562 6.79584 53.8706C7.31034 54.3851 8.00003 54.6865 8.7271 54.7146C9.45416 54.7427 10.165 54.4954 10.7177 54.0221L51.9999 12.7399L93.2821 54.051C93.8348 54.5243 94.5457 54.7716 95.2727 54.7435C95.9998 54.7154 96.6895 54.414 97.204 53.8995C97.7185 53.385 98.0199 52.6953 98.048 51.9683C98.0761 51.2412 97.8287 50.5303 97.3555 49.9777L97.3844 49.9488Z"
        fill="#999BA8" />
    <path
        d="M80.8891 92.4444H66.4446V63.5555H37.5557V92.4444H23.1113V52L17.3335 57.7778V92.4444C17.3335 93.9768 17.9422 95.4464 19.0258 96.5299C20.1093 97.6135 21.5789 98.2222 23.1113 98.2222H43.3335V69.3333H60.6668V98.2222H80.8891C82.4214 98.2222 83.891 97.6135 84.9746 96.5299C86.0581 95.4464 86.6668 93.9768 86.6668 92.4444V57.0844L80.8891 51.3066V92.4444Z"
        fill="#999BA8" />
</svg>
